ISO-10303-21;
HEADER;
FILE_DESCRIPTION(('FreeCAD Model'),'2;1');
FILE_NAME('Open CASCADE Shape Model','2026-09-25T23:35:53',('Author'),(
    ''),'Open CASCADE STEP processor 7.9','FreeCAD','Unknown');
FILE_SCHEMA(('AUTOMOTIVE_DESIGN { 1 0 10303 214 1 1 1 1 }'));
ENDSEC;
DATA;
#1 = APPLICATION_PROTOCOL_DEFINITION('international standard',
  'automotive_design',2000,#2);
#2 = APPLICATION_CONTEXT(
  'core data for automotive mechanical design processes');
#3 = SHAPE_DEFINITION_REPRESENTATION(#4,#10);
#4 = PRODUCT_DEFINITION_SHAPE('','',#5);
#5 = PRODUCT_DEFINITION('design','',#6,#9);
#6 = PRODUCT_DEFINITION_FORMATION('','',#7);
#7 = PRODUCT('L','L','',(#8));
#8 = PRODUCT_CONTEXT('',#2,'mechanical');
#9 = PRODUCT_DEFINITION_CONTEXT('part definition',#2,'design');
#10 = SHAPE_REPRESENTATION('',(#11,#15,#19,#23),#27);
#11 = AXIS2_PLACEMENT_3D('',#12,#13,#14);
#12 = CARTESIAN_POINT('',(0.,0.,0.));
#13 = DIRECTION('',(0.,0.,1.));
#14 = DIRECTION('',(1.,0.,-0.));
#15 = AXIS2_PLACEMENT_3D('',#16,#17,#18);
#16 = CARTESIAN_POINT('',(0.,0.,0.));
#17 = DIRECTION('',(0.,0.,1.));
#18 = DIRECTION('',(1.,0.,0.));
#19 = AXIS2_PLACEMENT_3D('',#20,#21,#22);
#20 = CARTESIAN_POINT('',(0.,0.,0.));
#21 = DIRECTION('',(0.,0.,1.));
#22 = DIRECTION('',(1.,0.,0.));
#23 = AXIS2_PLACEMENT_3D('',#24,#25,#26);
#24 = CARTESIAN_POINT('',(0.,0.,0.));
#25 = DIRECTION('',(0.,0.,1.));
#26 = DIRECTION('',(1.,0.,0.));
#27 = ( GEOMETRIC_REPRESENTATION_CONTEXT(3) 
GLOBAL_UNCERTAINTY_ASSIGNED_CONTEXT((#31)) GLOBAL_UNIT_ASSIGNED_CONTEXT(
(#28,#29,#30)) REPRESENTATION_CONTEXT('Context #1',
  '3D Context with UNIT and UNCERTAINTY') );
#28 = ( LENGTH_UNIT() NAMED_UNIT(*) SI_UNIT(.MILLI.,.METRE.) );
#29 = ( NAMED_UNIT(*) PLANE_ANGLE_UNIT() SI_UNIT($,.RADIAN.) );
#30 = ( NAMED_UNIT(*) SI_UNIT($,.STERADIAN.) SOLID_ANGLE_UNIT() );
#31 = UNCERTAINTY_MEASURE_WITH_UNIT(LENGTH_MEASURE(2.E-07),#28,
  'distance_accuracy_value','confusion accuracy');
#32 = PRODUCT_RELATED_PRODUCT_CATEGORY('part',$,(#7));
#33 = SHAPE_DEFINITION_REPRESENTATION(#34,#40);
#34 = PRODUCT_DEFINITION_SHAPE('','',#35);
#35 = PRODUCT_DEFINITION('design','',#36,#39);
#36 = PRODUCT_DEFINITION_FORMATION('','',#37);
#37 = PRODUCT('Body','Body','',(#38));
#38 = PRODUCT_CONTEXT('',#2,'mechanical');
#39 = PRODUCT_DEFINITION_CONTEXT('part definition',#2,'design');
#40 = ADVANCED_BREP_SHAPE_REPRESENTATION('',(#11,#41),#621);
#41 = MANIFOLD_SOLID_BREP('',#42);
#42 = CLOSED_SHELL('',(#43,#131,#164,#195,#274,#298,#315,#339,#363,#388,
    #412,#430,#486,#503,#527,#551,#568,#580,#592,#609));
#43 = ADVANCED_FACE('',(#44),#126,.F.);
#44 = FACE_BOUND('',#45,.F.);
#45 = EDGE_LOOP('',(#46,#56,#64,#72,#80,#88,#96,#104,#112,#120));
#46 = ORIENTED_EDGE('',*,*,#47,.F.);
#47 = EDGE_CURVE('',#48,#50,#52,.T.);
#48 = VERTEX_POINT('',#49);
#49 = CARTESIAN_POINT('',(-2.7,-2.6,2.75));
#50 = VERTEX_POINT('',#51);
#51 = CARTESIAN_POINT('',(-2.7,2.6,2.75));
#52 = LINE('',#53,#54);
#53 = CARTESIAN_POINT('',(-2.7,-2.6,2.75));
#54 = VECTOR('',#55,1.);
#55 = DIRECTION('',(-0.,1.,0.));
#56 = ORIENTED_EDGE('',*,*,#57,.F.);
#57 = EDGE_CURVE('',#58,#48,#60,.T.);
#58 = VERTEX_POINT('',#59);
#59 = CARTESIAN_POINT('',(-2.7,-2.6,0.));
#60 = LINE('',#61,#62);
#61 = CARTESIAN_POINT('',(-2.7,-2.6,0.));
#62 = VECTOR('',#63,1.);
#63 = DIRECTION('',(0.,0.,1.));
#64 = ORIENTED_EDGE('',*,*,#65,.T.);
#65 = EDGE_CURVE('',#58,#66,#68,.T.);
#66 = VERTEX_POINT('',#67);
#67 = CARTESIAN_POINT('',(-2.7,-1.4,0.));
#68 = LINE('',#69,#70);
#69 = CARTESIAN_POINT('',(-2.7,-2.6,0.));
#70 = VECTOR('',#71,1.);
#71 = DIRECTION('',(-0.,1.,0.));
#72 = ORIENTED_EDGE('',*,*,#73,.F.);
#73 = EDGE_CURVE('',#74,#66,#76,.T.);
#74 = VERTEX_POINT('',#75);
#75 = CARTESIAN_POINT('',(-2.7,-1.4,0.1));
#76 = LINE('',#77,#78);
#77 = CARTESIAN_POINT('',(-2.7,-1.4,0.225));
#78 = VECTOR('',#79,1.);
#79 = DIRECTION('',(-0.,0.,-1.));
#80 = ORIENTED_EDGE('',*,*,#81,.T.);
#81 = EDGE_CURVE('',#74,#82,#84,.T.);
#82 = VERTEX_POINT('',#83);
#83 = CARTESIAN_POINT('',(-2.7,-1.4,1.5));
#84 = LINE('',#85,#86);
#85 = CARTESIAN_POINT('',(-2.7,-1.4,0.));
#86 = VECTOR('',#87,1.);
#87 = DIRECTION('',(0.,0.,1.));
#88 = ORIENTED_EDGE('',*,*,#89,.T.);
#89 = EDGE_CURVE('',#82,#90,#92,.T.);
#90 = VERTEX_POINT('',#91);
#91 = CARTESIAN_POINT('',(-2.7,1.4,1.5));
#92 = LINE('',#93,#94);
#93 = CARTESIAN_POINT('',(-2.7,-1.4,1.5));
#94 = VECTOR('',#95,1.);
#95 = DIRECTION('',(-0.,1.,0.));
#96 = ORIENTED_EDGE('',*,*,#97,.F.);
#97 = EDGE_CURVE('',#98,#90,#100,.T.);
#98 = VERTEX_POINT('',#99);
#99 = CARTESIAN_POINT('',(-2.7,1.4,0.1));
#100 = LINE('',#101,#102);
#101 = CARTESIAN_POINT('',(-2.7,1.4,0.));
#102 = VECTOR('',#103,1.);
#103 = DIRECTION('',(0.,0.,1.));
#104 = ORIENTED_EDGE('',*,*,#105,.F.);
#105 = EDGE_CURVE('',#106,#98,#108,.T.);
#106 = VERTEX_POINT('',#107);
#107 = CARTESIAN_POINT('',(-2.7,1.4,0.));
#108 = LINE('',#109,#110);
#109 = CARTESIAN_POINT('',(-2.7,1.4,0.225));
#110 = VECTOR('',#111,1.);
#111 = DIRECTION('',(0.,-0.,1.));
#112 = ORIENTED_EDGE('',*,*,#113,.T.);
#113 = EDGE_CURVE('',#106,#114,#116,.T.);
#114 = VERTEX_POINT('',#115);
#115 = CARTESIAN_POINT('',(-2.7,2.6,0.));
#116 = LINE('',#117,#118);
#117 = CARTESIAN_POINT('',(-2.7,-2.6,0.));
#118 = VECTOR('',#119,1.);
#119 = DIRECTION('',(-0.,1.,0.));
#120 = ORIENTED_EDGE('',*,*,#121,.T.);
#121 = EDGE_CURVE('',#114,#50,#122,.T.);
#122 = LINE('',#123,#124);
#123 = CARTESIAN_POINT('',(-2.7,2.6,0.));
#124 = VECTOR('',#125,1.);
#125 = DIRECTION('',(0.,0.,1.));
#126 = PLANE('',#127);
#127 = AXIS2_PLACEMENT_3D('',#128,#129,#130);
#128 = CARTESIAN_POINT('',(-2.7,-2.6,0.));
#129 = DIRECTION('',(1.,0.,-0.));
#130 = DIRECTION('',(0.,0.,1.));
#131 = ADVANCED_FACE('',(#132),#159,.T.);
#132 = FACE_BOUND('',#133,.T.);
#133 = EDGE_LOOP('',(#134,#143,#151,#158));
#134 = ORIENTED_EDGE('',*,*,#135,.T.);
#135 = EDGE_CURVE('',#48,#136,#138,.T.);
#136 = VERTEX_POINT('',#137);
#137 = CARTESIAN_POINT('',(-2.45,-2.35,3.));
#138 = ELLIPSE('',#139,0.353553390593,0.25);
#139 = AXIS2_PLACEMENT_3D('',#140,#141,#142);
#140 = CARTESIAN_POINT('',(-2.45,-2.35,2.75));
#141 = DIRECTION('',(-0.707106781187,0.707106781187,0.));
#142 = DIRECTION('',(0.707106781187,0.707106781187,0.));
#143 = ORIENTED_EDGE('',*,*,#144,.T.);
#144 = EDGE_CURVE('',#136,#145,#147,.T.);
#145 = VERTEX_POINT('',#146);
#146 = CARTESIAN_POINT('',(-2.45,2.35,3.));
#147 = LINE('',#148,#149);
#148 = CARTESIAN_POINT('',(-2.45,-2.6,3.));
#149 = VECTOR('',#150,1.);
#150 = DIRECTION('',(-0.,1.,0.));
#151 = ORIENTED_EDGE('',*,*,#152,.F.);
#152 = EDGE_CURVE('',#50,#145,#153,.T.);
#153 = ELLIPSE('',#154,0.353553390593,0.25);
#154 = AXIS2_PLACEMENT_3D('',#155,#156,#157);
#155 = CARTESIAN_POINT('',(-2.45,2.35,2.75));
#156 = DIRECTION('',(0.707106781187,0.707106781187,0.));
#157 = DIRECTION('',(-0.707106781187,0.707106781187,0.));
#158 = ORIENTED_EDGE('',*,*,#47,.F.);
#159 = CYLINDRICAL_SURFACE('',#160,0.25);
#160 = AXIS2_PLACEMENT_3D('',#161,#162,#163);
#161 = CARTESIAN_POINT('',(-2.45,-2.6,2.75));
#162 = DIRECTION('',(-0.,1.,0.));
#163 = DIRECTION('',(-1.,-0.,0.));
#164 = ADVANCED_FACE('',(#165),#190,.T.);
#165 = FACE_BOUND('',#166,.T.);
#166 = EDGE_LOOP('',(#167,#177,#183,#184));
#167 = ORIENTED_EDGE('',*,*,#168,.F.);
#168 = EDGE_CURVE('',#169,#171,#173,.T.);
#169 = VERTEX_POINT('',#170);
#170 = CARTESIAN_POINT('',(2.7,2.6,0.));
#171 = VERTEX_POINT('',#172);
#172 = CARTESIAN_POINT('',(2.7,2.6,2.75));
#173 = LINE('',#174,#175);
#174 = CARTESIAN_POINT('',(2.7,2.6,0.));
#175 = VECTOR('',#176,1.);
#176 = DIRECTION('',(0.,0.,1.));
#177 = ORIENTED_EDGE('',*,*,#178,.F.);
#178 = EDGE_CURVE('',#114,#169,#179,.T.);
#179 = LINE('',#180,#181);
#180 = CARTESIAN_POINT('',(-2.7,2.6,0.));
#181 = VECTOR('',#182,1.);
#182 = DIRECTION('',(1.,0.,-0.));
#183 = ORIENTED_EDGE('',*,*,#121,.T.);
#184 = ORIENTED_EDGE('',*,*,#185,.T.);
#185 = EDGE_CURVE('',#50,#171,#186,.T.);
#186 = LINE('',#187,#188);
#187 = CARTESIAN_POINT('',(-2.7,2.6,2.75));
#188 = VECTOR('',#189,1.);
#189 = DIRECTION('',(1.,0.,-0.));
#190 = PLANE('',#191);
#191 = AXIS2_PLACEMENT_3D('',#192,#193,#194);
#192 = CARTESIAN_POINT('',(-2.7,2.6,0.));
#193 = DIRECTION('',(-0.,1.,0.));
#194 = DIRECTION('',(0.,0.,1.));
#195 = ADVANCED_FACE('',(#196),#269,.F.);
#196 = FACE_BOUND('',#197,.F.);
#197 = EDGE_LOOP('',(#198,#199,#207,#215,#223,#231,#239,#245,#246,#247,
    #255,#263));
#198 = ORIENTED_EDGE('',*,*,#65,.F.);
#199 = ORIENTED_EDGE('',*,*,#200,.T.);
#200 = EDGE_CURVE('',#58,#201,#203,.T.);
#201 = VERTEX_POINT('',#202);
#202 = CARTESIAN_POINT('',(2.7,-2.6,0.));
#203 = LINE('',#204,#205);
#204 = CARTESIAN_POINT('',(-2.7,-2.6,0.));
#205 = VECTOR('',#206,1.);
#206 = DIRECTION('',(1.,0.,-0.));
#207 = ORIENTED_EDGE('',*,*,#208,.T.);
#208 = EDGE_CURVE('',#201,#209,#211,.T.);
#209 = VERTEX_POINT('',#210);
#210 = CARTESIAN_POINT('',(2.7,-1.4,0.));
#211 = LINE('',#212,#213);
#212 = CARTESIAN_POINT('',(2.7,-2.6,0.));
#213 = VECTOR('',#214,1.);
#214 = DIRECTION('',(-0.,1.,0.));
#215 = ORIENTED_EDGE('',*,*,#216,.F.);
#216 = EDGE_CURVE('',#217,#209,#219,.T.);
#217 = VERTEX_POINT('',#218);
#218 = CARTESIAN_POINT('',(1.5,-1.4,0.));
#219 = LINE('',#220,#221);
#220 = CARTESIAN_POINT('',(1.5,-1.4,0.));
#221 = VECTOR('',#222,1.);
#222 = DIRECTION('',(1.,0.,-0.));
#223 = ORIENTED_EDGE('',*,*,#224,.T.);
#224 = EDGE_CURVE('',#217,#225,#227,.T.);
#225 = VERTEX_POINT('',#226);
#226 = CARTESIAN_POINT('',(1.5,1.4,0.));
#227 = LINE('',#228,#229);
#228 = CARTESIAN_POINT('',(1.5,-1.4,0.));
#229 = VECTOR('',#230,1.);
#230 = DIRECTION('',(-0.,1.,0.));
#231 = ORIENTED_EDGE('',*,*,#232,.T.);
#232 = EDGE_CURVE('',#225,#233,#235,.T.);
#233 = VERTEX_POINT('',#234);
#234 = CARTESIAN_POINT('',(2.7,1.4,0.));
#235 = LINE('',#236,#237);
#236 = CARTESIAN_POINT('',(2.7,1.4,0.));
#237 = VECTOR('',#238,1.);
#238 = DIRECTION('',(1.,0.,-0.));
#239 = ORIENTED_EDGE('',*,*,#240,.T.);
#240 = EDGE_CURVE('',#233,#169,#241,.T.);
#241 = LINE('',#242,#243);
#242 = CARTESIAN_POINT('',(2.7,-2.6,0.));
#243 = VECTOR('',#244,1.);
#244 = DIRECTION('',(-0.,1.,0.));
#245 = ORIENTED_EDGE('',*,*,#178,.F.);
#246 = ORIENTED_EDGE('',*,*,#113,.F.);
#247 = ORIENTED_EDGE('',*,*,#248,.T.);
#248 = EDGE_CURVE('',#106,#249,#251,.T.);
#249 = VERTEX_POINT('',#250);
#250 = CARTESIAN_POINT('',(-1.5,1.4,0.));
#251 = LINE('',#252,#253);
#252 = CARTESIAN_POINT('',(-2.7,1.4,0.));
#253 = VECTOR('',#254,1.);
#254 = DIRECTION('',(1.,0.,-0.));
#255 = ORIENTED_EDGE('',*,*,#256,.F.);
#256 = EDGE_CURVE('',#257,#249,#259,.T.);
#257 = VERTEX_POINT('',#258);
#258 = CARTESIAN_POINT('',(-1.5,-1.4,0.));
#259 = LINE('',#260,#261);
#260 = CARTESIAN_POINT('',(-1.5,-1.4,0.));
#261 = VECTOR('',#262,1.);
#262 = DIRECTION('',(-0.,1.,0.));
#263 = ORIENTED_EDGE('',*,*,#264,.F.);
#264 = EDGE_CURVE('',#66,#257,#265,.T.);
#265 = LINE('',#266,#267);
#266 = CARTESIAN_POINT('',(-2.8,-1.4,0.));
#267 = VECTOR('',#268,1.);
#268 = DIRECTION('',(1.,0.,-0.));
#269 = PLANE('',#270);
#270 = AXIS2_PLACEMENT_3D('',#271,#272,#273);
#271 = CARTESIAN_POINT('',(-2.7,-2.6,0.));
#272 = DIRECTION('',(0.,0.,1.));
#273 = DIRECTION('',(1.,0.,-0.));
#274 = ADVANCED_FACE('',(#275),#293,.F.);
#275 = FACE_BOUND('',#276,.F.);
#276 = EDGE_LOOP('',(#277,#278,#279,#287));
#277 = ORIENTED_EDGE('',*,*,#248,.F.);
#278 = ORIENTED_EDGE('',*,*,#105,.T.);
#279 = ORIENTED_EDGE('',*,*,#280,.T.);
#280 = EDGE_CURVE('',#98,#281,#283,.T.);
#281 = VERTEX_POINT('',#282);
#282 = CARTESIAN_POINT('',(-1.5,1.4,0.1));
#283 = LINE('',#284,#285);
#284 = CARTESIAN_POINT('',(-2.7,1.4,0.1));
#285 = VECTOR('',#286,1.);
#286 = DIRECTION('',(1.,0.,-0.));
#287 = ORIENTED_EDGE('',*,*,#288,.F.);
#288 = EDGE_CURVE('',#249,#281,#289,.T.);
#289 = LINE('',#290,#291);
#290 = CARTESIAN_POINT('',(-1.5,1.4,0.));
#291 = VECTOR('',#292,1.);
#292 = DIRECTION('',(0.,0.,1.));
#293 = PLANE('',#294);
#294 = AXIS2_PLACEMENT_3D('',#295,#296,#297);
#295 = CARTESIAN_POINT('',(-2.45,1.4,0.45));
#296 = DIRECTION('',(0.,1.,0.));
#297 = DIRECTION('',(0.,-0.,1.));
#298 = ADVANCED_FACE('',(#299),#310,.F.);
#299 = FACE_BOUND('',#300,.F.);
#300 = EDGE_LOOP('',(#301,#302,#308,#309));
#301 = ORIENTED_EDGE('',*,*,#81,.F.);
#302 = ORIENTED_EDGE('',*,*,#303,.T.);
#303 = EDGE_CURVE('',#74,#98,#304,.T.);
#304 = LINE('',#305,#306);
#305 = CARTESIAN_POINT('',(-2.7,-1.4,0.1));
#306 = VECTOR('',#307,1.);
#307 = DIRECTION('',(-0.,1.,0.));
#308 = ORIENTED_EDGE('',*,*,#97,.T.);
#309 = ORIENTED_EDGE('',*,*,#89,.F.);
#310 = PLANE('',#311);
#311 = AXIS2_PLACEMENT_3D('',#312,#313,#314);
#312 = CARTESIAN_POINT('',(-2.7,-2.6,0.));
#313 = DIRECTION('',(1.,0.,-0.));
#314 = DIRECTION('',(0.,0.,1.));
#315 = ADVANCED_FACE('',(#316),#334,.F.);
#316 = FACE_BOUND('',#317,.F.);
#317 = EDGE_LOOP('',(#318,#319,#327,#333));
#318 = ORIENTED_EDGE('',*,*,#264,.T.);
#319 = ORIENTED_EDGE('',*,*,#320,.T.);
#320 = EDGE_CURVE('',#257,#321,#323,.T.);
#321 = VERTEX_POINT('',#322);
#322 = CARTESIAN_POINT('',(-1.5,-1.4,0.1));
#323 = LINE('',#324,#325);
#324 = CARTESIAN_POINT('',(-1.5,-1.4,0.));
#325 = VECTOR('',#326,1.);
#326 = DIRECTION('',(0.,0.,1.));
#327 = ORIENTED_EDGE('',*,*,#328,.F.);
#328 = EDGE_CURVE('',#74,#321,#329,.T.);
#329 = LINE('',#330,#331);
#330 = CARTESIAN_POINT('',(-2.7,-1.4,0.1));
#331 = VECTOR('',#332,1.);
#332 = DIRECTION('',(1.,0.,-0.));
#333 = ORIENTED_EDGE('',*,*,#73,.T.);
#334 = PLANE('',#335);
#335 = AXIS2_PLACEMENT_3D('',#336,#337,#338);
#336 = CARTESIAN_POINT('',(-2.45,-1.4,0.45));
#337 = DIRECTION('',(-0.,-1.,-0.));
#338 = DIRECTION('',(0.,0.,-1.));
#339 = ADVANCED_FACE('',(#340),#358,.F.);
#340 = FACE_BOUND('',#341,.F.);
#341 = EDGE_LOOP('',(#342,#350,#351,#352));
#342 = ORIENTED_EDGE('',*,*,#343,.F.);
#343 = EDGE_CURVE('',#201,#344,#346,.T.);
#344 = VERTEX_POINT('',#345);
#345 = CARTESIAN_POINT('',(2.7,-2.6,2.75));
#346 = LINE('',#347,#348);
#347 = CARTESIAN_POINT('',(2.7,-2.6,0.));
#348 = VECTOR('',#349,1.);
#349 = DIRECTION('',(0.,0.,1.));
#350 = ORIENTED_EDGE('',*,*,#200,.F.);
#351 = ORIENTED_EDGE('',*,*,#57,.T.);
#352 = ORIENTED_EDGE('',*,*,#353,.T.);
#353 = EDGE_CURVE('',#48,#344,#354,.T.);
#354 = LINE('',#355,#356);
#355 = CARTESIAN_POINT('',(-2.7,-2.6,2.75));
#356 = VECTOR('',#357,1.);
#357 = DIRECTION('',(1.,0.,-0.));
#358 = PLANE('',#359);
#359 = AXIS2_PLACEMENT_3D('',#360,#361,#362);
#360 = CARTESIAN_POINT('',(-2.7,-2.6,0.));
#361 = DIRECTION('',(-0.,1.,0.));
#362 = DIRECTION('',(0.,0.,1.));
#363 = ADVANCED_FACE('',(#364),#383,.T.);
#364 = FACE_BOUND('',#365,.F.);
#365 = EDGE_LOOP('',(#366,#367,#375,#382));
#366 = ORIENTED_EDGE('',*,*,#135,.T.);
#367 = ORIENTED_EDGE('',*,*,#368,.T.);
#368 = EDGE_CURVE('',#136,#369,#371,.T.);
#369 = VERTEX_POINT('',#370);
#370 = CARTESIAN_POINT('',(2.45,-2.35,3.));
#371 = LINE('',#372,#373);
#372 = CARTESIAN_POINT('',(-2.7,-2.35,3.));
#373 = VECTOR('',#374,1.);
#374 = DIRECTION('',(1.,0.,-0.));
#375 = ORIENTED_EDGE('',*,*,#376,.F.);
#376 = EDGE_CURVE('',#344,#369,#377,.T.);
#377 = ELLIPSE('',#378,0.353553390593,0.25);
#378 = AXIS2_PLACEMENT_3D('',#379,#380,#381);
#379 = CARTESIAN_POINT('',(2.45,-2.35,2.75));
#380 = DIRECTION('',(-0.707106781187,-0.707106781187,-0.));
#381 = DIRECTION('',(-0.707106781187,0.707106781187,0.));
#382 = ORIENTED_EDGE('',*,*,#353,.F.);
#383 = CYLINDRICAL_SURFACE('',#384,0.25);
#384 = AXIS2_PLACEMENT_3D('',#385,#386,#387);
#385 = CARTESIAN_POINT('',(-2.7,-2.35,2.75));
#386 = DIRECTION('',(1.,0.,-0.));
#387 = DIRECTION('',(0.,-1.,0.));
#388 = ADVANCED_FACE('',(#389),#407,.T.);
#389 = FACE_BOUND('',#390,.T.);
#390 = EDGE_LOOP('',(#391,#392,#393,#401));
#391 = ORIENTED_EDGE('',*,*,#144,.F.);
#392 = ORIENTED_EDGE('',*,*,#368,.T.);
#393 = ORIENTED_EDGE('',*,*,#394,.T.);
#394 = EDGE_CURVE('',#369,#395,#397,.T.);
#395 = VERTEX_POINT('',#396);
#396 = CARTESIAN_POINT('',(2.45,2.35,3.));
#397 = LINE('',#398,#399);
#398 = CARTESIAN_POINT('',(2.45,-2.6,3.));
#399 = VECTOR('',#400,1.);
#400 = DIRECTION('',(-0.,1.,0.));
#401 = ORIENTED_EDGE('',*,*,#402,.F.);
#402 = EDGE_CURVE('',#145,#395,#403,.T.);
#403 = LINE('',#404,#405);
#404 = CARTESIAN_POINT('',(-2.7,2.35,3.));
#405 = VECTOR('',#406,1.);
#406 = DIRECTION('',(1.,0.,-0.));
#407 = PLANE('',#408);
#408 = AXIS2_PLACEMENT_3D('',#409,#410,#411);
#409 = CARTESIAN_POINT('',(-2.7,-2.6,3.));
#410 = DIRECTION('',(0.,0.,1.));
#411 = DIRECTION('',(1.,0.,-0.));
#412 = ADVANCED_FACE('',(#413),#425,.T.);
#413 = FACE_BOUND('',#414,.T.);
#414 = EDGE_LOOP('',(#415,#416,#417,#424));
#415 = ORIENTED_EDGE('',*,*,#152,.T.);
#416 = ORIENTED_EDGE('',*,*,#402,.T.);
#417 = ORIENTED_EDGE('',*,*,#418,.F.);
#418 = EDGE_CURVE('',#171,#395,#419,.T.);
#419 = ELLIPSE('',#420,0.353553390593,0.25);
#420 = AXIS2_PLACEMENT_3D('',#421,#422,#423);
#421 = CARTESIAN_POINT('',(2.45,2.35,2.75));
#422 = DIRECTION('',(0.707106781187,-0.707106781187,-0.));
#423 = DIRECTION('',(0.707106781187,0.707106781187,0.));
#424 = ORIENTED_EDGE('',*,*,#185,.F.);
#425 = CYLINDRICAL_SURFACE('',#426,0.25);
#426 = AXIS2_PLACEMENT_3D('',#427,#428,#429);
#427 = CARTESIAN_POINT('',(-2.7,2.35,2.75));
#428 = DIRECTION('',(1.,0.,-0.));
#429 = DIRECTION('',(0.,1.,0.));
#430 = ADVANCED_FACE('',(#431),#481,.T.);
#431 = FACE_BOUND('',#432,.T.);
#432 = EDGE_LOOP('',(#433,#439,#440,#441,#449,#457,#465,#473,#479,#480)
  );
#433 = ORIENTED_EDGE('',*,*,#434,.F.);
#434 = EDGE_CURVE('',#344,#171,#435,.T.);
#435 = LINE('',#436,#437);
#436 = CARTESIAN_POINT('',(2.7,-2.6,2.75));
#437 = VECTOR('',#438,1.);
#438 = DIRECTION('',(-0.,1.,0.));
#439 = ORIENTED_EDGE('',*,*,#343,.F.);
#440 = ORIENTED_EDGE('',*,*,#208,.T.);
#441 = ORIENTED_EDGE('',*,*,#442,.F.);
#442 = EDGE_CURVE('',#443,#209,#445,.T.);
#443 = VERTEX_POINT('',#444);
#444 = CARTESIAN_POINT('',(2.7,-1.4,0.1));
#445 = LINE('',#446,#447);
#446 = CARTESIAN_POINT('',(2.7,-1.4,0.225));
#447 = VECTOR('',#448,1.);
#448 = DIRECTION('',(-0.,0.,-1.));
#449 = ORIENTED_EDGE('',*,*,#450,.T.);
#450 = EDGE_CURVE('',#443,#451,#453,.T.);
#451 = VERTEX_POINT('',#452);
#452 = CARTESIAN_POINT('',(2.7,-1.4,1.5));
#453 = LINE('',#454,#455);
#454 = CARTESIAN_POINT('',(2.7,-1.4,0.));
#455 = VECTOR('',#456,1.);
#456 = DIRECTION('',(0.,0.,1.));
#457 = ORIENTED_EDGE('',*,*,#458,.T.);
#458 = EDGE_CURVE('',#451,#459,#461,.T.);
#459 = VERTEX_POINT('',#460);
#460 = CARTESIAN_POINT('',(2.7,1.4,1.5));
#461 = LINE('',#462,#463);
#462 = CARTESIAN_POINT('',(2.7,-1.4,1.5));
#463 = VECTOR('',#464,1.);
#464 = DIRECTION('',(-0.,1.,0.));
#465 = ORIENTED_EDGE('',*,*,#466,.F.);
#466 = EDGE_CURVE('',#467,#459,#469,.T.);
#467 = VERTEX_POINT('',#468);
#468 = CARTESIAN_POINT('',(2.7,1.4,0.1));
#469 = LINE('',#470,#471);
#470 = CARTESIAN_POINT('',(2.7,1.4,0.));
#471 = VECTOR('',#472,1.);
#472 = DIRECTION('',(0.,0.,1.));
#473 = ORIENTED_EDGE('',*,*,#474,.F.);
#474 = EDGE_CURVE('',#233,#467,#475,.T.);
#475 = LINE('',#476,#477);
#476 = CARTESIAN_POINT('',(2.7,1.4,0.225));
#477 = VECTOR('',#478,1.);
#478 = DIRECTION('',(0.,-0.,1.));
#479 = ORIENTED_EDGE('',*,*,#240,.T.);
#480 = ORIENTED_EDGE('',*,*,#168,.T.);
#481 = PLANE('',#482);
#482 = AXIS2_PLACEMENT_3D('',#483,#484,#485);
#483 = CARTESIAN_POINT('',(2.7,-2.6,0.));
#484 = DIRECTION('',(1.,0.,-0.));
#485 = DIRECTION('',(0.,0.,1.));
#486 = ADVANCED_FACE('',(#487),#498,.F.);
#487 = FACE_BOUND('',#488,.F.);
#488 = EDGE_LOOP('',(#489,#490,#491,#492));
#489 = ORIENTED_EDGE('',*,*,#320,.F.);
#490 = ORIENTED_EDGE('',*,*,#256,.T.);
#491 = ORIENTED_EDGE('',*,*,#288,.T.);
#492 = ORIENTED_EDGE('',*,*,#493,.F.);
#493 = EDGE_CURVE('',#321,#281,#494,.T.);
#494 = LINE('',#495,#496);
#495 = CARTESIAN_POINT('',(-1.5,-1.4,0.1));
#496 = VECTOR('',#497,1.);
#497 = DIRECTION('',(-0.,1.,0.));
#498 = PLANE('',#499);
#499 = AXIS2_PLACEMENT_3D('',#500,#501,#502);
#500 = CARTESIAN_POINT('',(-1.5,-1.4,0.));
#501 = DIRECTION('',(1.,0.,-0.));
#502 = DIRECTION('',(0.,0.,1.));
#503 = ADVANCED_FACE('',(#504),#522,.F.);
#504 = FACE_BOUND('',#505,.F.);
#505 = EDGE_LOOP('',(#506,#507,#515,#521));
#506 = ORIENTED_EDGE('',*,*,#232,.F.);
#507 = ORIENTED_EDGE('',*,*,#508,.T.);
#508 = EDGE_CURVE('',#225,#509,#511,.T.);
#509 = VERTEX_POINT('',#510);
#510 = CARTESIAN_POINT('',(1.5,1.4,0.1));
#511 = LINE('',#512,#513);
#512 = CARTESIAN_POINT('',(1.5,1.4,0.));
#513 = VECTOR('',#514,1.);
#514 = DIRECTION('',(0.,0.,1.));
#515 = ORIENTED_EDGE('',*,*,#516,.T.);
#516 = EDGE_CURVE('',#509,#467,#517,.T.);
#517 = LINE('',#518,#519);
#518 = CARTESIAN_POINT('',(1.5,1.4,0.1));
#519 = VECTOR('',#520,1.);
#520 = DIRECTION('',(1.,0.,-0.));
#521 = ORIENTED_EDGE('',*,*,#474,.F.);
#522 = PLANE('',#523);
#523 = AXIS2_PLACEMENT_3D('',#524,#525,#526);
#524 = CARTESIAN_POINT('',(2.45,1.4,0.45));
#525 = DIRECTION('',(0.,1.,0.));
#526 = DIRECTION('',(0.,-0.,1.));
#527 = ADVANCED_FACE('',(#528),#546,.T.);
#528 = FACE_BOUND('',#529,.T.);
#529 = EDGE_LOOP('',(#530,#538,#539,#540));
#530 = ORIENTED_EDGE('',*,*,#531,.F.);
#531 = EDGE_CURVE('',#217,#532,#534,.T.);
#532 = VERTEX_POINT('',#533);
#533 = CARTESIAN_POINT('',(1.5,-1.4,0.1));
#534 = LINE('',#535,#536);
#535 = CARTESIAN_POINT('',(1.5,-1.4,0.));
#536 = VECTOR('',#537,1.);
#537 = DIRECTION('',(0.,0.,1.));
#538 = ORIENTED_EDGE('',*,*,#224,.T.);
#539 = ORIENTED_EDGE('',*,*,#508,.T.);
#540 = ORIENTED_EDGE('',*,*,#541,.F.);
#541 = EDGE_CURVE('',#532,#509,#542,.T.);
#542 = LINE('',#543,#544);
#543 = CARTESIAN_POINT('',(1.5,-1.4,0.1));
#544 = VECTOR('',#545,1.);
#545 = DIRECTION('',(-0.,1.,0.));
#546 = PLANE('',#547);
#547 = AXIS2_PLACEMENT_3D('',#548,#549,#550);
#548 = CARTESIAN_POINT('',(1.5,-1.4,0.));
#549 = DIRECTION('',(1.,0.,-0.));
#550 = DIRECTION('',(0.,0.,1.));
#551 = ADVANCED_FACE('',(#552),#563,.F.);
#552 = FACE_BOUND('',#553,.F.);
#553 = EDGE_LOOP('',(#554,#555,#556,#557));
#554 = ORIENTED_EDGE('',*,*,#531,.F.);
#555 = ORIENTED_EDGE('',*,*,#216,.T.);
#556 = ORIENTED_EDGE('',*,*,#442,.F.);
#557 = ORIENTED_EDGE('',*,*,#558,.F.);
#558 = EDGE_CURVE('',#532,#443,#559,.T.);
#559 = LINE('',#560,#561);
#560 = CARTESIAN_POINT('',(1.5,-1.4,0.1));
#561 = VECTOR('',#562,1.);
#562 = DIRECTION('',(1.,0.,-0.));
#563 = PLANE('',#564);
#564 = AXIS2_PLACEMENT_3D('',#565,#566,#567);
#565 = CARTESIAN_POINT('',(2.45,-1.4,0.45));
#566 = DIRECTION('',(-0.,-1.,-0.));
#567 = DIRECTION('',(0.,0.,-1.));
#568 = ADVANCED_FACE('',(#569),#575,.F.);
#569 = FACE_BOUND('',#570,.F.);
#570 = EDGE_LOOP('',(#571,#572,#573,#574));
#571 = ORIENTED_EDGE('',*,*,#303,.F.);
#572 = ORIENTED_EDGE('',*,*,#328,.T.);
#573 = ORIENTED_EDGE('',*,*,#493,.T.);
#574 = ORIENTED_EDGE('',*,*,#280,.F.);
#575 = PLANE('',#576);
#576 = AXIS2_PLACEMENT_3D('',#577,#578,#579);
#577 = CARTESIAN_POINT('',(-2.7,-1.4,0.1));
#578 = DIRECTION('',(0.,0.,1.));
#579 = DIRECTION('',(1.,0.,-0.));
#580 = ADVANCED_FACE('',(#581),#587,.T.);
#581 = FACE_BOUND('',#582,.F.);
#582 = EDGE_LOOP('',(#583,#584,#585,#586));
#583 = ORIENTED_EDGE('',*,*,#376,.T.);
#584 = ORIENTED_EDGE('',*,*,#394,.T.);
#585 = ORIENTED_EDGE('',*,*,#418,.F.);
#586 = ORIENTED_EDGE('',*,*,#434,.F.);
#587 = CYLINDRICAL_SURFACE('',#588,0.25);
#588 = AXIS2_PLACEMENT_3D('',#589,#590,#591);
#589 = CARTESIAN_POINT('',(2.45,-2.6,2.75));
#590 = DIRECTION('',(-0.,1.,0.));
#591 = DIRECTION('',(1.,0.,-0.));
#592 = ADVANCED_FACE('',(#593),#604,.T.);
#593 = FACE_BOUND('',#594,.T.);
#594 = EDGE_LOOP('',(#595,#596,#602,#603));
#595 = ORIENTED_EDGE('',*,*,#450,.F.);
#596 = ORIENTED_EDGE('',*,*,#597,.T.);
#597 = EDGE_CURVE('',#443,#467,#598,.T.);
#598 = LINE('',#599,#600);
#599 = CARTESIAN_POINT('',(2.7,-1.4,0.1));
#600 = VECTOR('',#601,1.);
#601 = DIRECTION('',(-0.,1.,0.));
#602 = ORIENTED_EDGE('',*,*,#466,.T.);
#603 = ORIENTED_EDGE('',*,*,#458,.F.);
#604 = PLANE('',#605);
#605 = AXIS2_PLACEMENT_3D('',#606,#607,#608);
#606 = CARTESIAN_POINT('',(2.7,-2.6,0.));
#607 = DIRECTION('',(1.,0.,-0.));
#608 = DIRECTION('',(0.,0.,1.));
#609 = ADVANCED_FACE('',(#610),#616,.F.);
#610 = FACE_BOUND('',#611,.F.);
#611 = EDGE_LOOP('',(#612,#613,#614,#615));
#612 = ORIENTED_EDGE('',*,*,#541,.F.);
#613 = ORIENTED_EDGE('',*,*,#558,.T.);
#614 = ORIENTED_EDGE('',*,*,#597,.T.);
#615 = ORIENTED_EDGE('',*,*,#516,.F.);
#616 = PLANE('',#617);
#617 = AXIS2_PLACEMENT_3D('',#618,#619,#620);
#618 = CARTESIAN_POINT('',(1.5,-1.4,0.1));
#619 = DIRECTION('',(0.,0.,1.));
#620 = DIRECTION('',(1.,0.,-0.));
#621 = ( GEOMETRIC_REPRESENTATION_CONTEXT(3) 
GLOBAL_UNCERTAINTY_ASSIGNED_CONTEXT((#625)) GLOBAL_UNIT_ASSIGNED_CONTEXT
((#622,#623,#624)) REPRESENTATION_CONTEXT('Context #1',
  '3D Context with UNIT and UNCERTAINTY') );
#622 = ( LENGTH_UNIT() NAMED_UNIT(*) SI_UNIT(.MILLI.,.METRE.) );
#623 = ( NAMED_UNIT(*) PLANE_ANGLE_UNIT() SI_UNIT($,.RADIAN.) );
#624 = ( NAMED_UNIT(*) SI_UNIT($,.STERADIAN.) SOLID_ANGLE_UNIT() );
#625 = UNCERTAINTY_MEASURE_WITH_UNIT(LENGTH_MEASURE(2.E-07),#622,
  'distance_accuracy_value','confusion accuracy');
#626 = CONTEXT_DEPENDENT_SHAPE_REPRESENTATION(#627,#629);
#627 = ( REPRESENTATION_RELATIONSHIP('','',#40,#10) 
REPRESENTATION_RELATIONSHIP_WITH_TRANSFORMATION(#628) 
SHAPE_REPRESENTATION_RELATIONSHIP() );
#628 = ITEM_DEFINED_TRANSFORMATION('','',#11,#15);
#629 = PRODUCT_DEFINITION_SHAPE('Placement','Placement of an item',#630
  );
#630 = NEXT_ASSEMBLY_USAGE_OCCURRENCE('1','Body','',#5,#35,$);
#631 = PRODUCT_RELATED_PRODUCT_CATEGORY('part',$,(#37));
#632 = SHAPE_DEFINITION_REPRESENTATION(#633,#639);
#633 = PRODUCT_DEFINITION_SHAPE('','',#634);
#634 = PRODUCT_DEFINITION('design','',#635,#638);
#635 = PRODUCT_DEFINITION_FORMATION('','',#636);
#636 = PRODUCT('Pin1','Pin1','',(#637));
#637 = PRODUCT_CONTEXT('',#2,'mechanical');
#638 = PRODUCT_DEFINITION_CONTEXT('part definition',#2,'design');
#639 = ADVANCED_BREP_SHAPE_REPRESENTATION('',(#11,#640),#856);
#640 = MANIFOLD_SOLID_BREP('',#641);
#641 = CLOSED_SHELL('',(#642,#682,#713,#744,#775,#806,#825,#844));
#642 = ADVANCED_FACE('',(#643),#677,.T.);
#643 = FACE_BOUND('',#644,.T.);
#644 = EDGE_LOOP('',(#645,#655,#663,#671));
#645 = ORIENTED_EDGE('',*,*,#646,.F.);
#646 = EDGE_CURVE('',#647,#649,#651,.T.);
#647 = VERTEX_POINT('',#648);
#648 = CARTESIAN_POINT('',(-1.5,-1.4,0.));
#649 = VERTEX_POINT('',#650);
#650 = CARTESIAN_POINT('',(-1.5,-1.4,0.1));
#651 = LINE('',#652,#653);
#652 = CARTESIAN_POINT('',(-1.5,-1.4,0.));
#653 = VECTOR('',#654,1.);
#654 = DIRECTION('',(0.,0.,1.));
#655 = ORIENTED_EDGE('',*,*,#656,.T.);
#656 = EDGE_CURVE('',#647,#657,#659,.T.);
#657 = VERTEX_POINT('',#658);
#658 = CARTESIAN_POINT('',(-1.5,1.4,0.));
#659 = LINE('',#660,#661);
#660 = CARTESIAN_POINT('',(-1.5,-1.4,0.));
#661 = VECTOR('',#662,1.);
#662 = DIRECTION('',(-0.,1.,0.));
#663 = ORIENTED_EDGE('',*,*,#664,.T.);
#664 = EDGE_CURVE('',#657,#665,#667,.T.);
#665 = VERTEX_POINT('',#666);
#666 = CARTESIAN_POINT('',(-1.5,1.4,0.1));
#667 = LINE('',#668,#669);
#668 = CARTESIAN_POINT('',(-1.5,1.4,0.));
#669 = VECTOR('',#670,1.);
#670 = DIRECTION('',(0.,0.,1.));
#671 = ORIENTED_EDGE('',*,*,#672,.F.);
#672 = EDGE_CURVE('',#649,#665,#673,.T.);
#673 = LINE('',#674,#675);
#674 = CARTESIAN_POINT('',(-1.5,-1.4,0.1));
#675 = VECTOR('',#676,1.);
#676 = DIRECTION('',(-0.,1.,0.));
#677 = PLANE('',#678);
#678 = AXIS2_PLACEMENT_3D('',#679,#680,#681);
#679 = CARTESIAN_POINT('',(-1.5,-1.4,0.));
#680 = DIRECTION('',(1.,0.,-0.));
#681 = DIRECTION('',(0.,0.,1.));
#682 = ADVANCED_FACE('',(#683),#708,.T.);
#683 = FACE_BOUND('',#684,.T.);
#684 = EDGE_LOOP('',(#685,#695,#701,#702));
#685 = ORIENTED_EDGE('',*,*,#686,.F.);
#686 = EDGE_CURVE('',#687,#689,#691,.T.);
#687 = VERTEX_POINT('',#688);
#688 = CARTESIAN_POINT('',(-2.7,-1.4,0.1));
#689 = VERTEX_POINT('',#690);
#690 = CARTESIAN_POINT('',(-2.7,1.4,0.1));
#691 = LINE('',#692,#693);
#692 = CARTESIAN_POINT('',(-2.7,-1.4,0.1));
#693 = VECTOR('',#694,1.);
#694 = DIRECTION('',(-0.,1.,0.));
#695 = ORIENTED_EDGE('',*,*,#696,.T.);
#696 = EDGE_CURVE('',#687,#649,#697,.T.);
#697 = LINE('',#698,#699);
#698 = CARTESIAN_POINT('',(-2.7,-1.4,0.1));
#699 = VECTOR('',#700,1.);
#700 = DIRECTION('',(1.,0.,-0.));
#701 = ORIENTED_EDGE('',*,*,#672,.T.);
#702 = ORIENTED_EDGE('',*,*,#703,.F.);
#703 = EDGE_CURVE('',#689,#665,#704,.T.);
#704 = LINE('',#705,#706);
#705 = CARTESIAN_POINT('',(-2.7,1.4,0.1));
#706 = VECTOR('',#707,1.);
#707 = DIRECTION('',(1.,0.,-0.));
#708 = PLANE('',#709);
#709 = AXIS2_PLACEMENT_3D('',#710,#711,#712);
#710 = CARTESIAN_POINT('',(-2.7,-1.4,0.1));
#711 = DIRECTION('',(0.,0.,1.));
#712 = DIRECTION('',(1.,0.,-0.));
#713 = ADVANCED_FACE('',(#714),#739,.T.);
#714 = FACE_BOUND('',#715,.T.);
#715 = EDGE_LOOP('',(#716,#724,#725,#733));
#716 = ORIENTED_EDGE('',*,*,#717,.F.);
#717 = EDGE_CURVE('',#687,#718,#720,.T.);
#718 = VERTEX_POINT('',#719);
#719 = CARTESIAN_POINT('',(-2.7,-1.4,1.5));
#720 = LINE('',#721,#722);
#721 = CARTESIAN_POINT('',(-2.7,-1.4,0.));
#722 = VECTOR('',#723,1.);
#723 = DIRECTION('',(0.,0.,1.));
#724 = ORIENTED_EDGE('',*,*,#686,.T.);
#725 = ORIENTED_EDGE('',*,*,#726,.T.);
#726 = EDGE_CURVE('',#689,#727,#729,.T.);
#727 = VERTEX_POINT('',#728);
#728 = CARTESIAN_POINT('',(-2.7,1.4,1.5));
#729 = LINE('',#730,#731);
#730 = CARTESIAN_POINT('',(-2.7,1.4,0.));
#731 = VECTOR('',#732,1.);
#732 = DIRECTION('',(0.,0.,1.));
#733 = ORIENTED_EDGE('',*,*,#734,.F.);
#734 = EDGE_CURVE('',#718,#727,#735,.T.);
#735 = LINE('',#736,#737);
#736 = CARTESIAN_POINT('',(-2.7,-1.4,1.5));
#737 = VECTOR('',#738,1.);
#738 = DIRECTION('',(-0.,1.,0.));
#739 = PLANE('',#740);
#740 = AXIS2_PLACEMENT_3D('',#741,#742,#743);
#741 = CARTESIAN_POINT('',(-2.7,-1.4,0.));
#742 = DIRECTION('',(1.,0.,-0.));
#743 = DIRECTION('',(0.,0.,1.));
#744 = ADVANCED_FACE('',(#745),#770,.T.);
#745 = FACE_BOUND('',#746,.T.);
#746 = EDGE_LOOP('',(#747,#757,#763,#764));
#747 = ORIENTED_EDGE('',*,*,#748,.F.);
#748 = EDGE_CURVE('',#749,#751,#753,.T.);
#749 = VERTEX_POINT('',#750);
#750 = CARTESIAN_POINT('',(-2.8,-1.4,1.5));
#751 = VERTEX_POINT('',#752);
#752 = CARTESIAN_POINT('',(-2.8,1.4,1.5));
#753 = LINE('',#754,#755);
#754 = CARTESIAN_POINT('',(-2.8,-1.4,1.5));
#755 = VECTOR('',#756,1.);
#756 = DIRECTION('',(-0.,1.,0.));
#757 = ORIENTED_EDGE('',*,*,#758,.T.);
#758 = EDGE_CURVE('',#749,#718,#759,.T.);
#759 = LINE('',#760,#761);
#760 = CARTESIAN_POINT('',(-2.8,-1.4,1.5));
#761 = VECTOR('',#762,1.);
#762 = DIRECTION('',(1.,0.,-0.));
#763 = ORIENTED_EDGE('',*,*,#734,.T.);
#764 = ORIENTED_EDGE('',*,*,#765,.F.);
#765 = EDGE_CURVE('',#751,#727,#766,.T.);
#766 = LINE('',#767,#768);
#767 = CARTESIAN_POINT('',(-2.8,1.4,1.5));
#768 = VECTOR('',#769,1.);
#769 = DIRECTION('',(1.,0.,-0.));
#770 = PLANE('',#771);
#771 = AXIS2_PLACEMENT_3D('',#772,#773,#774);
#772 = CARTESIAN_POINT('',(-2.8,-1.4,1.5));
#773 = DIRECTION('',(0.,0.,1.));
#774 = DIRECTION('',(1.,0.,-0.));
#775 = ADVANCED_FACE('',(#776),#801,.F.);
#776 = FACE_BOUND('',#777,.F.);
#777 = EDGE_LOOP('',(#778,#786,#794,#800));
#778 = ORIENTED_EDGE('',*,*,#779,.F.);
#779 = EDGE_CURVE('',#780,#749,#782,.T.);
#780 = VERTEX_POINT('',#781);
#781 = CARTESIAN_POINT('',(-2.8,-1.4,0.));
#782 = LINE('',#783,#784);
#783 = CARTESIAN_POINT('',(-2.8,-1.4,0.));
#784 = VECTOR('',#785,1.);
#785 = DIRECTION('',(0.,0.,1.));
#786 = ORIENTED_EDGE('',*,*,#787,.T.);
#787 = EDGE_CURVE('',#780,#788,#790,.T.);
#788 = VERTEX_POINT('',#789);
#789 = CARTESIAN_POINT('',(-2.8,1.4,0.));
#790 = LINE('',#791,#792);
#791 = CARTESIAN_POINT('',(-2.8,-1.4,0.));
#792 = VECTOR('',#793,1.);
#793 = DIRECTION('',(-0.,1.,0.));
#794 = ORIENTED_EDGE('',*,*,#795,.T.);
#795 = EDGE_CURVE('',#788,#751,#796,.T.);
#796 = LINE('',#797,#798);
#797 = CARTESIAN_POINT('',(-2.8,1.4,0.));
#798 = VECTOR('',#799,1.);
#799 = DIRECTION('',(0.,0.,1.));
#800 = ORIENTED_EDGE('',*,*,#748,.F.);
#801 = PLANE('',#802);
#802 = AXIS2_PLACEMENT_3D('',#803,#804,#805);
#803 = CARTESIAN_POINT('',(-2.8,-1.4,0.));
#804 = DIRECTION('',(1.,0.,-0.));
#805 = DIRECTION('',(0.,0.,1.));
#806 = ADVANCED_FACE('',(#807),#820,.T.);
#807 = FACE_BOUND('',#808,.T.);
#808 = EDGE_LOOP('',(#809,#810,#811,#812,#813,#814));
#809 = ORIENTED_EDGE('',*,*,#646,.T.);
#810 = ORIENTED_EDGE('',*,*,#696,.F.);
#811 = ORIENTED_EDGE('',*,*,#717,.T.);
#812 = ORIENTED_EDGE('',*,*,#758,.F.);
#813 = ORIENTED_EDGE('',*,*,#779,.F.);
#814 = ORIENTED_EDGE('',*,*,#815,.T.);
#815 = EDGE_CURVE('',#780,#647,#816,.T.);
#816 = LINE('',#817,#818);
#817 = CARTESIAN_POINT('',(-2.8,-1.4,0.));
#818 = VECTOR('',#819,1.);
#819 = DIRECTION('',(1.,0.,-0.));
#820 = PLANE('',#821);
#821 = AXIS2_PLACEMENT_3D('',#822,#823,#824);
#822 = CARTESIAN_POINT('',(-2.45,-1.4,0.45));
#823 = DIRECTION('',(-0.,-1.,-0.));
#824 = DIRECTION('',(0.,0.,-1.));
#825 = ADVANCED_FACE('',(#826),#839,.T.);
#826 = FACE_BOUND('',#827,.T.);
#827 = EDGE_LOOP('',(#828,#834,#835,#836,#837,#838));
#828 = ORIENTED_EDGE('',*,*,#829,.F.);
#829 = EDGE_CURVE('',#788,#657,#830,.T.);
#830 = LINE('',#831,#832);
#831 = CARTESIAN_POINT('',(-2.7,1.4,0.));
#832 = VECTOR('',#833,1.);
#833 = DIRECTION('',(1.,0.,-0.));
#834 = ORIENTED_EDGE('',*,*,#795,.T.);
#835 = ORIENTED_EDGE('',*,*,#765,.T.);
#836 = ORIENTED_EDGE('',*,*,#726,.F.);
#837 = ORIENTED_EDGE('',*,*,#703,.T.);
#838 = ORIENTED_EDGE('',*,*,#664,.F.);
#839 = PLANE('',#840);
#840 = AXIS2_PLACEMENT_3D('',#841,#842,#843);
#841 = CARTESIAN_POINT('',(-2.45,1.4,0.45));
#842 = DIRECTION('',(0.,1.,0.));
#843 = DIRECTION('',(0.,-0.,1.));
#844 = ADVANCED_FACE('',(#845),#851,.T.);
#845 = FACE_BOUND('',#846,.T.);
#846 = EDGE_LOOP('',(#847,#848,#849,#850));
#847 = ORIENTED_EDGE('',*,*,#829,.T.);
#848 = ORIENTED_EDGE('',*,*,#656,.F.);
#849 = ORIENTED_EDGE('',*,*,#815,.F.);
#850 = ORIENTED_EDGE('',*,*,#787,.T.);
#851 = PLANE('',#852);
#852 = AXIS2_PLACEMENT_3D('',#853,#854,#855);
#853 = CARTESIAN_POINT('',(-2.15,2.707861035671E-17,0.));
#854 = DIRECTION('',(-0.,-0.,-1.));
#855 = DIRECTION('',(-1.,0.,0.));
#856 = ( GEOMETRIC_REPRESENTATION_CONTEXT(3) 
GLOBAL_UNCERTAINTY_ASSIGNED_CONTEXT((#860)) GLOBAL_UNIT_ASSIGNED_CONTEXT
((#857,#858,#859)) REPRESENTATION_CONTEXT('Context #1',
  '3D Context with UNIT and UNCERTAINTY') );
#857 = ( LENGTH_UNIT() NAMED_UNIT(*) SI_UNIT(.MILLI.,.METRE.) );
#858 = ( NAMED_UNIT(*) PLANE_ANGLE_UNIT() SI_UNIT($,.RADIAN.) );
#859 = ( NAMED_UNIT(*) SI_UNIT($,.STERADIAN.) SOLID_ANGLE_UNIT() );
#860 = UNCERTAINTY_MEASURE_WITH_UNIT(LENGTH_MEASURE(1.E-07),#857,
  'distance_accuracy_value','confusion accuracy');
#861 = CONTEXT_DEPENDENT_SHAPE_REPRESENTATION(#862,#864);
#862 = ( REPRESENTATION_RELATIONSHIP('','',#639,#10) 
REPRESENTATION_RELATIONSHIP_WITH_TRANSFORMATION(#863) 
SHAPE_REPRESENTATION_RELATIONSHIP() );
#863 = ITEM_DEFINED_TRANSFORMATION('','',#11,#19);
#864 = PRODUCT_DEFINITION_SHAPE('Placement','Placement of an item',#865
  );
#865 = NEXT_ASSEMBLY_USAGE_OCCURRENCE('2','Pin1','',#5,#634,$);
#866 = PRODUCT_RELATED_PRODUCT_CATEGORY('part',$,(#636));
#867 = SHAPE_DEFINITION_REPRESENTATION(#868,#874);
#868 = PRODUCT_DEFINITION_SHAPE('','',#869);
#869 = PRODUCT_DEFINITION('design','',#870,#873);
#870 = PRODUCT_DEFINITION_FORMATION('','',#871);
#871 = PRODUCT('Pin2','Pin2','',(#872));
#872 = PRODUCT_CONTEXT('',#2,'mechanical');
#873 = PRODUCT_DEFINITION_CONTEXT('part definition',#2,'design');
#874 = ADVANCED_BREP_SHAPE_REPRESENTATION('',(#11,#875),#1091);
#875 = MANIFOLD_SOLID_BREP('',#876);
#876 = CLOSED_SHELL('',(#877,#917,#948,#979,#1010,#1041,#1060,#1079));
#877 = ADVANCED_FACE('',(#878),#912,.F.);
#878 = FACE_BOUND('',#879,.F.);
#879 = EDGE_LOOP('',(#880,#890,#898,#906));
#880 = ORIENTED_EDGE('',*,*,#881,.F.);
#881 = EDGE_CURVE('',#882,#884,#886,.T.);
#882 = VERTEX_POINT('',#883);
#883 = CARTESIAN_POINT('',(1.5,-1.4,0.));
#884 = VERTEX_POINT('',#885);
#885 = CARTESIAN_POINT('',(1.5,-1.4,0.1));
#886 = LINE('',#887,#888);
#887 = CARTESIAN_POINT('',(1.5,-1.4,0.));
#888 = VECTOR('',#889,1.);
#889 = DIRECTION('',(0.,0.,1.));
#890 = ORIENTED_EDGE('',*,*,#891,.T.);
#891 = EDGE_CURVE('',#882,#892,#894,.T.);
#892 = VERTEX_POINT('',#893);
#893 = CARTESIAN_POINT('',(1.5,1.4,0.));
#894 = LINE('',#895,#896);
#895 = CARTESIAN_POINT('',(1.5,-1.4,0.));
#896 = VECTOR('',#897,1.);
#897 = DIRECTION('',(-0.,1.,0.));
#898 = ORIENTED_EDGE('',*,*,#899,.T.);
#899 = EDGE_CURVE('',#892,#900,#902,.T.);
#900 = VERTEX_POINT('',#901);
#901 = CARTESIAN_POINT('',(1.5,1.4,0.1));
#902 = LINE('',#903,#904);
#903 = CARTESIAN_POINT('',(1.5,1.4,0.));
#904 = VECTOR('',#905,1.);
#905 = DIRECTION('',(0.,0.,1.));
#906 = ORIENTED_EDGE('',*,*,#907,.F.);
#907 = EDGE_CURVE('',#884,#900,#908,.T.);
#908 = LINE('',#909,#910);
#909 = CARTESIAN_POINT('',(1.5,-1.4,0.1));
#910 = VECTOR('',#911,1.);
#911 = DIRECTION('',(-0.,1.,0.));
#912 = PLANE('',#913);
#913 = AXIS2_PLACEMENT_3D('',#914,#915,#916);
#914 = CARTESIAN_POINT('',(1.5,-1.4,0.));
#915 = DIRECTION('',(1.,0.,-0.));
#916 = DIRECTION('',(0.,0.,1.));
#917 = ADVANCED_FACE('',(#918),#943,.T.);
#918 = FACE_BOUND('',#919,.T.);
#919 = EDGE_LOOP('',(#920,#921,#929,#937));
#920 = ORIENTED_EDGE('',*,*,#907,.F.);
#921 = ORIENTED_EDGE('',*,*,#922,.T.);
#922 = EDGE_CURVE('',#884,#923,#925,.T.);
#923 = VERTEX_POINT('',#924);
#924 = CARTESIAN_POINT('',(2.7,-1.4,0.1));
#925 = LINE('',#926,#927);
#926 = CARTESIAN_POINT('',(1.5,-1.4,0.1));
#927 = VECTOR('',#928,1.);
#928 = DIRECTION('',(1.,0.,-0.));
#929 = ORIENTED_EDGE('',*,*,#930,.T.);
#930 = EDGE_CURVE('',#923,#931,#933,.T.);
#931 = VERTEX_POINT('',#932);
#932 = CARTESIAN_POINT('',(2.7,1.4,0.1));
#933 = LINE('',#934,#935);
#934 = CARTESIAN_POINT('',(2.7,-1.4,0.1));
#935 = VECTOR('',#936,1.);
#936 = DIRECTION('',(-0.,1.,0.));
#937 = ORIENTED_EDGE('',*,*,#938,.F.);
#938 = EDGE_CURVE('',#900,#931,#939,.T.);
#939 = LINE('',#940,#941);
#940 = CARTESIAN_POINT('',(1.5,1.4,0.1));
#941 = VECTOR('',#942,1.);
#942 = DIRECTION('',(1.,0.,-0.));
#943 = PLANE('',#944);
#944 = AXIS2_PLACEMENT_3D('',#945,#946,#947);
#945 = CARTESIAN_POINT('',(1.5,-1.4,0.1));
#946 = DIRECTION('',(0.,0.,1.));
#947 = DIRECTION('',(1.,0.,-0.));
#948 = ADVANCED_FACE('',(#949),#974,.F.);
#949 = FACE_BOUND('',#950,.F.);
#950 = EDGE_LOOP('',(#951,#959,#960,#968));
#951 = ORIENTED_EDGE('',*,*,#952,.F.);
#952 = EDGE_CURVE('',#923,#953,#955,.T.);
#953 = VERTEX_POINT('',#954);
#954 = CARTESIAN_POINT('',(2.7,-1.4,1.5));
#955 = LINE('',#956,#957);
#956 = CARTESIAN_POINT('',(2.7,-1.4,0.));
#957 = VECTOR('',#958,1.);
#958 = DIRECTION('',(0.,0.,1.));
#959 = ORIENTED_EDGE('',*,*,#930,.T.);
#960 = ORIENTED_EDGE('',*,*,#961,.T.);
#961 = EDGE_CURVE('',#931,#962,#964,.T.);
#962 = VERTEX_POINT('',#963);
#963 = CARTESIAN_POINT('',(2.7,1.4,1.5));
#964 = LINE('',#965,#966);
#965 = CARTESIAN_POINT('',(2.7,1.4,0.));
#966 = VECTOR('',#967,1.);
#967 = DIRECTION('',(0.,0.,1.));
#968 = ORIENTED_EDGE('',*,*,#969,.F.);
#969 = EDGE_CURVE('',#953,#962,#970,.T.);
#970 = LINE('',#971,#972);
#971 = CARTESIAN_POINT('',(2.7,-1.4,1.5));
#972 = VECTOR('',#973,1.);
#973 = DIRECTION('',(-0.,1.,0.));
#974 = PLANE('',#975);
#975 = AXIS2_PLACEMENT_3D('',#976,#977,#978);
#976 = CARTESIAN_POINT('',(2.7,-1.4,0.));
#977 = DIRECTION('',(1.,0.,-0.));
#978 = DIRECTION('',(0.,0.,1.));
#979 = ADVANCED_FACE('',(#980),#1005,.T.);
#980 = FACE_BOUND('',#981,.T.);
#981 = EDGE_LOOP('',(#982,#983,#991,#999));
#982 = ORIENTED_EDGE('',*,*,#969,.F.);
#983 = ORIENTED_EDGE('',*,*,#984,.T.);
#984 = EDGE_CURVE('',#953,#985,#987,.T.);
#985 = VERTEX_POINT('',#986);
#986 = CARTESIAN_POINT('',(2.8,-1.4,1.5));
#987 = LINE('',#988,#989);
#988 = CARTESIAN_POINT('',(2.7,-1.4,1.5));
#989 = VECTOR('',#990,1.);
#990 = DIRECTION('',(1.,0.,-0.));
#991 = ORIENTED_EDGE('',*,*,#992,.T.);
#992 = EDGE_CURVE('',#985,#993,#995,.T.);
#993 = VERTEX_POINT('',#994);
#994 = CARTESIAN_POINT('',(2.8,1.4,1.5));
#995 = LINE('',#996,#997);
#996 = CARTESIAN_POINT('',(2.8,-1.4,1.5));
#997 = VECTOR('',#998,1.);
#998 = DIRECTION('',(-0.,1.,0.));
#999 = ORIENTED_EDGE('',*,*,#1000,.F.);
#1000 = EDGE_CURVE('',#962,#993,#1001,.T.);
#1001 = LINE('',#1002,#1003);
#1002 = CARTESIAN_POINT('',(2.7,1.4,1.5));
#1003 = VECTOR('',#1004,1.);
#1004 = DIRECTION('',(1.,0.,-0.));
#1005 = PLANE('',#1006);
#1006 = AXIS2_PLACEMENT_3D('',#1007,#1008,#1009);
#1007 = CARTESIAN_POINT('',(2.7,-1.4,1.5));
#1008 = DIRECTION('',(0.,0.,1.));
#1009 = DIRECTION('',(1.,0.,-0.));
#1010 = ADVANCED_FACE('',(#1011),#1036,.T.);
#1011 = FACE_BOUND('',#1012,.T.);
#1012 = EDGE_LOOP('',(#1013,#1021,#1029,#1035));
#1013 = ORIENTED_EDGE('',*,*,#1014,.F.);
#1014 = EDGE_CURVE('',#1015,#985,#1017,.T.);
#1015 = VERTEX_POINT('',#1016);
#1016 = CARTESIAN_POINT('',(2.8,-1.4,0.));
#1017 = LINE('',#1018,#1019);
#1018 = CARTESIAN_POINT('',(2.8,-1.4,0.));
#1019 = VECTOR('',#1020,1.);
#1020 = DIRECTION('',(0.,0.,1.));
#1021 = ORIENTED_EDGE('',*,*,#1022,.T.);
#1022 = EDGE_CURVE('',#1015,#1023,#1025,.T.);
#1023 = VERTEX_POINT('',#1024);
#1024 = CARTESIAN_POINT('',(2.8,1.4,0.));
#1025 = LINE('',#1026,#1027);
#1026 = CARTESIAN_POINT('',(2.8,-1.4,0.));
#1027 = VECTOR('',#1028,1.);
#1028 = DIRECTION('',(-0.,1.,0.));
#1029 = ORIENTED_EDGE('',*,*,#1030,.T.);
#1030 = EDGE_CURVE('',#1023,#993,#1031,.T.);
#1031 = LINE('',#1032,#1033);
#1032 = CARTESIAN_POINT('',(2.8,1.4,0.));
#1033 = VECTOR('',#1034,1.);
#1034 = DIRECTION('',(0.,0.,1.));
#1035 = ORIENTED_EDGE('',*,*,#992,.F.);
#1036 = PLANE('',#1037);
#1037 = AXIS2_PLACEMENT_3D('',#1038,#1039,#1040);
#1038 = CARTESIAN_POINT('',(2.8,-1.4,0.));
#1039 = DIRECTION('',(1.,0.,-0.));
#1040 = DIRECTION('',(0.,0.,1.));
#1041 = ADVANCED_FACE('',(#1042),#1055,.T.);
#1042 = FACE_BOUND('',#1043,.T.);
#1043 = EDGE_LOOP('',(#1044,#1050,#1051,#1052,#1053,#1054));
#1044 = ORIENTED_EDGE('',*,*,#1045,.T.);
#1045 = EDGE_CURVE('',#882,#1015,#1046,.T.);
#1046 = LINE('',#1047,#1048);
#1047 = CARTESIAN_POINT('',(1.5,-1.4,0.));
#1048 = VECTOR('',#1049,1.);
#1049 = DIRECTION('',(1.,0.,-0.));
#1050 = ORIENTED_EDGE('',*,*,#1014,.T.);
#1051 = ORIENTED_EDGE('',*,*,#984,.F.);
#1052 = ORIENTED_EDGE('',*,*,#952,.F.);
#1053 = ORIENTED_EDGE('',*,*,#922,.F.);
#1054 = ORIENTED_EDGE('',*,*,#881,.F.);
#1055 = PLANE('',#1056);
#1056 = AXIS2_PLACEMENT_3D('',#1057,#1058,#1059);
#1057 = CARTESIAN_POINT('',(2.45,-1.4,0.45));
#1058 = DIRECTION('',(-0.,-1.,-0.));
#1059 = DIRECTION('',(0.,0.,-1.));
#1060 = ADVANCED_FACE('',(#1061),#1074,.T.);
#1061 = FACE_BOUND('',#1062,.T.);
#1062 = EDGE_LOOP('',(#1063,#1064,#1065,#1066,#1067,#1068));
#1063 = ORIENTED_EDGE('',*,*,#899,.T.);
#1064 = ORIENTED_EDGE('',*,*,#938,.T.);
#1065 = ORIENTED_EDGE('',*,*,#961,.T.);
#1066 = ORIENTED_EDGE('',*,*,#1000,.T.);
#1067 = ORIENTED_EDGE('',*,*,#1030,.F.);
#1068 = ORIENTED_EDGE('',*,*,#1069,.F.);
#1069 = EDGE_CURVE('',#892,#1023,#1070,.T.);
#1070 = LINE('',#1071,#1072);
#1071 = CARTESIAN_POINT('',(2.7,1.4,0.));
#1072 = VECTOR('',#1073,1.);
#1073 = DIRECTION('',(1.,0.,-0.));
#1074 = PLANE('',#1075);
#1075 = AXIS2_PLACEMENT_3D('',#1076,#1077,#1078);
#1076 = CARTESIAN_POINT('',(2.45,1.4,0.45));
#1077 = DIRECTION('',(0.,1.,0.));
#1078 = DIRECTION('',(0.,-0.,1.));
#1079 = ADVANCED_FACE('',(#1080),#1086,.T.);
#1080 = FACE_BOUND('',#1081,.T.);
#1081 = EDGE_LOOP('',(#1082,#1083,#1084,#1085));
#1082 = ORIENTED_EDGE('',*,*,#891,.T.);
#1083 = ORIENTED_EDGE('',*,*,#1069,.T.);
#1084 = ORIENTED_EDGE('',*,*,#1022,.F.);
#1085 = ORIENTED_EDGE('',*,*,#1045,.F.);
#1086 = PLANE('',#1087);
#1087 = AXIS2_PLACEMENT_3D('',#1088,#1089,#1090);
#1088 = CARTESIAN_POINT('',(2.15,0.,0.));
#1089 = DIRECTION('',(-0.,-0.,-1.));
#1090 = DIRECTION('',(-1.,0.,0.));
#1091 = ( GEOMETRIC_REPRESENTATION_CONTEXT(3) 
GLOBAL_UNCERTAINTY_ASSIGNED_CONTEXT((#1095)) 
GLOBAL_UNIT_ASSIGNED_CONTEXT((#1092,#1093,#1094)) REPRESENTATION_CONTEXT
('Context #1','3D Context with UNIT and UNCERTAINTY') );
#1092 = ( LENGTH_UNIT() NAMED_UNIT(*) SI_UNIT(.MILLI.,.METRE.) );
#1093 = ( NAMED_UNIT(*) PLANE_ANGLE_UNIT() SI_UNIT($,.RADIAN.) );
#1094 = ( NAMED_UNIT(*) SI_UNIT($,.STERADIAN.) SOLID_ANGLE_UNIT() );
#1095 = UNCERTAINTY_MEASURE_WITH_UNIT(LENGTH_MEASURE(1.E-07),#1092,
  'distance_accuracy_value','confusion accuracy');
#1096 = CONTEXT_DEPENDENT_SHAPE_REPRESENTATION(#1097,#1099);
#1097 = ( REPRESENTATION_RELATIONSHIP('','',#874,#10) 
REPRESENTATION_RELATIONSHIP_WITH_TRANSFORMATION(#1098) 
SHAPE_REPRESENTATION_RELATIONSHIP() );
#1098 = ITEM_DEFINED_TRANSFORMATION('','',#11,#23);
#1099 = PRODUCT_DEFINITION_SHAPE('Placement','Placement of an item',
  #1100);
#1100 = NEXT_ASSEMBLY_USAGE_OCCURRENCE('3','Pin2','',#5,#869,$);
#1101 = PRODUCT_RELATED_PRODUCT_CATEGORY('part',$,(#871));
#5000 = COLOUR_RGB('',0.15,0.15,0.15);
#5001 = FILL_AREA_STYLE_COLOUR('',#5000);
#5002 = FILL_AREA_STYLE('',(#5001));
#5003 = SURFACE_STYLE_FILL_AREA(#5002);
#5004 = SURFACE_SIDE_STYLE('',(#5003));
#5005 = SURFACE_STYLE_USAGE(.BOTH.,#5004);
#5006 = PRESENTATION_STYLE_ASSIGNMENT((#5005));
#5007 = STYLED_ITEM('color',(#5006),#41);
#5008 = COLOUR_RGB('',0.82,0.82,0.8);
#5009 = FILL_AREA_STYLE_COLOUR('',#5008);
#5010 = FILL_AREA_STYLE('',(#5009));
#5011 = SURFACE_STYLE_FILL_AREA(#5010);
#5012 = SURFACE_SIDE_STYLE('',(#5011));
#5013 = SURFACE_STYLE_USAGE(.BOTH.,#5012);
#5014 = PRESENTATION_STYLE_ASSIGNMENT((#5013));
#5015 = STYLED_ITEM('color',(#5014),#640);
#5016 = COLOUR_RGB('',0.82,0.82,0.8);
#5017 = FILL_AREA_STYLE_COLOUR('',#5016);
#5018 = FILL_AREA_STYLE('',(#5017));
#5019 = SURFACE_STYLE_FILL_AREA(#5018);
#5020 = SURFACE_SIDE_STYLE('',(#5019));
#5021 = SURFACE_STYLE_USAGE(.BOTH.,#5020);
#5022 = PRESENTATION_STYLE_ASSIGNMENT((#5021));
#5023 = STYLED_ITEM('color',(#5022),#875);
#5024 = MECHANICAL_DESIGN_GEOMETRIC_PRESENTATION_REPRESENTATION('',(#5007,#5015,#5023),#621);
ENDSEC;
END-ISO-10303-21;
